<?xml version="1.0" encoding="UTF-8" standalone="no"?>
<svg
   xmlns:dc="http://purl.org/dc/elements/1.1/"
   xmlns:cc="http://creativecommons.org/ns#"
   xmlns:rdf="http://www.w3.org/1999/02/22-rdf-syntax-ns#"
   xmlns:svg="http://www.w3.org/2000/svg"
   xmlns="http://www.w3.org/2000/svg"
   viewBox="0 0 99.929489 100.38969"
   height="100.38969"
   width="99.929489"
   id="svg5046"
   version="1.1">
  <metadata
     id="metadata5052">
    <rdf:RDF>
      <cc:Work
         rdf:about="">
        <dc:format>image/svg+xml</dc:format>
        <dc:type
           rdf:resource="http://purl.org/dc/dcmitype/StillImage" />
        <dc:title></dc:title>
      </cc:Work>
    </rdf:RDF>
  </metadata>
  <defs
     id="defs5050" />
  <path
     id="path5618"
     d="M 14.134078,100.31139 C 9.450645,99.705302 5.276006,97.127572 2.658456,93.225482 1.557929,91.584872 0.585023,89.174772 0.200305,87.136091 0.010344,86.129453 0,84.225388 0,50.264582 0,15.759253 0.0076,14.413817 0.208905,13.337208 0.8291,10.02013 2.366684,7.0798479 4.702707,4.7438248 6.965365,2.4811669 9.579696,1.0750299 12.960894,0.30210085 l 1.117318,-0.255415 34.972062,-0.03649 c 25.62242,-0.02674 35.31559,-0.0024 36.25699,0.09105 3.00421,0.298206 5.83217,1.39563905 8.21229,3.18689805 0.91364,0.6876 2.61304,2.4038119 3.26823,3.300565 1.70963,2.339943 2.77679,5.2005511 3.04483,8.1618571 0.0899,0.993021 0.11392,11.216896 0.0857,36.463734 l -0.0392,35.083799 -0.23751,1.072901 c -0.73461,3.318549 -2.17475,6.003709 -4.4511,8.299159 -2.18776,2.20611 -4.93936,3.70243 -8.18512,4.451051 l -1.08369,0.24994 -35.53073,0.0171 c -19.54189,0.009 -35.857537,-0.0252 -36.256978,-0.0769 z M 57.655064,81.177275 c 11.77874,-1.168698 17.87852,-5.593515 19.35447,-14.039856 0.13537,-0.77471 0.18644,-1.744201 0.18839,-3.576747 0.003,-2.692033 -0.10292,-3.573256 -0.66709,-5.55707 -0.35202,-1.237823 -1.54267,-3.645395 -2.30773,-4.666394 -1.68035,-2.242463 -4.13976,-4.005981 -6.93595,-4.973412 l -0.86928,-0.300753 0.85787,-0.374037 c 1.9588,-0.854055 4.14446,-2.639365 5.25928,-4.295933 1.38109,-2.052231 2.01238,-4.165167 2.12283,-7.105099 0.2609,-6.944598 -2.3815,-11.774847 -7.86159,-14.370788 -2.18051,-1.032921 -5.4672,-1.909076 -8.69571,-2.318074 -3.20804,-0.406408 -3.98371,-0.426534 -18.29609,-0.474738 l -14.273738,-0.04807 v 31.190282 31.190283 l 15.167598,-0.05104 c 12.75938,-0.04293 15.45167,-0.07922 16.95674,-0.228556 z M 41.731844,62.323124 v -8.164923 l 6.00559,0.04668 c 5.54021,0.04306 6.084,0.06435 7.0176,0.274703 3.29593,0.742632 5.23098,2.438424 5.98916,5.248636 0.3347,1.240576 0.33684,3.846922 0.004,5.078725 -0.74628,2.763334 -2.52141,4.412126 -5.58764,5.189938 -1.46875,0.372582 -3.55127,0.487417 -8.87582,0.489439 l -4.55307,0.0017 z m 0,-25.68143 v -6.600576 l 4.49721,9.4e-5 c 6.06953,1.11e-4 7.2494,0.12468 8.99943,0.950033 1.00182,0.472482 1.98995,1.385686 2.46617,2.27917 0.55353,1.03853 0.72977,1.88531 0.72317,3.474613 -0.005,1.199047 -0.0478,1.525655 -0.30291,2.308472 -0.51882,1.592249 -1.41917,2.583989 -3.03112,3.338806 -1.52891,0.715932 -1.86846,0.750413 -7.90502,0.802745 l -5.44693,0.04722 z"
     style="fill:#2d3c49;fill-opacity:1;stroke-width:0.11173184" />
</svg>
