<?xml version="1.0" encoding="UTF-8" standalone="no"?>
<!-- Created with Inkscape (http://www.inkscape.org/) -->

<svg
   xmlns:dc="http://purl.org/dc/elements/1.1/"
   xmlns:cc="http://creativecommons.org/ns#"
   xmlns:rdf="http://www.w3.org/1999/02/22-rdf-syntax-ns#"
   xmlns:svg="http://www.w3.org/2000/svg"
   xmlns="http://www.w3.org/2000/svg"
   xmlns:sodipodi="http://sodipodi.sourceforge.net/DTD/sodipodi-0.dtd"
   xmlns:inkscape="http://www.inkscape.org/namespaces/inkscape"
   width="130mm"
   height="130mm"
   viewBox="0 0 130 130"
   version="1.1"
   id="svg8"
   inkscape:version="0.92.1 r15371"
   sodipodi:docname="bracket-b.svg">
  <defs
     id="defs2" />
  <sodipodi:namedview
     id="base"
     pagecolor="#ffffff"
     bordercolor="#666666"
     borderopacity="1.0"
     inkscape:pageopacity="0.0"
     inkscape:pageshadow="2"
     inkscape:zoom="0.7"
     inkscape:cx="88.709385"
     inkscape:cy="207.52908"
     inkscape:document-units="mm"
     inkscape:current-layer="layer1"
     showgrid="false"
     showguides="true"
     inkscape:window-width="1920"
     inkscape:window-height="1013"
     inkscape:window-x="-9"
     inkscape:window-y="-9"
     inkscape:window-maximized="1" />
  <metadata
     id="metadata5">
    <rdf:RDF>
      <cc:Work
         rdf:about="">
        <dc:format>image/svg+xml</dc:format>
        <dc:type
           rdf:resource="http://purl.org/dc/dcmitype/StillImage" />
        <dc:title></dc:title>
      </cc:Work>
    </rdf:RDF>
  </metadata>
  <g
     inkscape:label="Layer 1"
     inkscape:groupmode="layer"
     id="layer1"
     transform="translate(-40,-83.499992)">
    <rect
       style="opacity:1;fill:#02b3e4;fill-opacity:1;stroke:none;stroke-width:16.79497147;stroke-linecap:butt;stroke-miterlimit:4;stroke-dasharray:none;stroke-dashoffset:0;stroke-opacity:1"
       id="rect4487"
       width="130"
       height="130"
       x="40"
       y="83.499992"
       ry="11.231292" />
    <g
       aria-label="&lt;/b&gt;"
       transform="matrix(1.2230463,0,0,1.2230463,815.06915,-468.34433)"
       style="font-style:normal;font-variant:normal;font-weight:normal;font-stretch:normal;font-size:40px;line-height:125%;font-family:'Segoe Print';-inkscape-font-specification:'Segoe Print';letter-spacing:0px;word-spacing:0px;fill:#000000;fill-opacity:1;stroke:none;stroke-width:1px;stroke-linecap:butt;stroke-linejoin:miter;stroke-opacity:1"
       id="flowRoot4544">
      <path
         d="m -620.75977,504.76091 12.96875,7.1875 q 0.97657,0.54687 1.28907,0.97656 0.33203,0.42969 0.33203,1.09375 0,0.83985 -0.60547,1.46485 -0.60547,0.60546 -1.40625,0.60546 -0.52734,0 -1.58203,-0.58593 l -19.31641,-10.74219 19.31641,-10.74219 q 1.05469,-0.5664 1.5625,-0.5664 0.82031,0 1.42578,0.60546 0.60547,0.60547 0.60547,1.44532 0,0.66406 -0.33203,1.09375 -0.3125,0.42968 -1.28907,0.97656 z"
         style="font-style:normal;font-variant:normal;font-weight:bold;font-stretch:normal;font-family:monospace;-inkscape-font-specification:'monospace Bold';fill:#ffffff"
         inkscape:connector-curvature="0"
         id="path4552" />
      <path
         d="m -584.33398,491.36247 -12.83204,27.65625 q -0.48828,1.03516 -0.8789,1.34766 -0.50781,0.41015 -1.23047,0.41015 -0.82031,0 -1.42578,-0.58593 -0.58594,-0.58594 -0.58594,-1.32813 0,-0.52734 0.46875,-1.54297 l 12.87109,-27.63672 q 0.48829,-1.03515 0.85938,-1.34765 0.52734,-0.41016 1.23047,-0.41016 0.82031,0 1.40625,0.58594 0.58594,0.56641 0.58594,1.30859 0,0.52735 -0.46875,1.54297 z"
         style="font-style:normal;font-variant:normal;font-weight:bold;font-stretch:normal;font-family:monospace;-inkscape-font-specification:'monospace Bold';fill:#ffffff"
         inkscape:connector-curvature="0"
         id="path4554" />
      <path
         d="m -573.65039,490.83513 v 8.98437 q 1.46484,-0.95703 2.96875,-1.42578 1.52344,-0.48828 3.06641,-0.48828 4.16015,0 7.05078,2.87109 2.89062,2.8711 2.89062,6.9336 0,3.88672 -2.7539,6.5039 -2.75391,2.59766 -7.26563,2.59766 -1.60156,0 -3.08594,-0.41016 -1.48437,-0.41015 -2.87109,-1.21093 v 0.97656 h -4.6875 q -1.44531,0 -2.07031,-0.54688 -0.60547,-0.5664 -0.60547,-1.46484 0,-0.87891 0.625,-1.42578 0.625,-0.56641 2.05078,-0.56641 h 0.68359 v -17.32422 h -0.68359 q -1.44531,0 -2.07031,-0.54687 -0.60547,-0.56641 -0.60547,-1.46484 0,-0.87891 0.60547,-1.42579 0.625,-0.5664 2.07031,-0.5664 z m 11.97266,16.99219 q 0,-2.48047 -1.73829,-4.19922 -1.73828,-1.71875 -4.25781,-1.71875 -2.5,0 -4.23828,1.71875 -1.73828,1.71875 -1.73828,4.14062 0,2.20703 1.5625,3.63281 1.5625,1.40625 4.41406,1.40625 2.85156,0 4.41406,-1.40625 1.58204,-1.42578 1.58204,-3.57421 z"
         style="font-style:normal;font-variant:normal;font-weight:bold;font-stretch:normal;font-family:monospace;-inkscape-font-specification:'monospace Bold';fill:#ffffff"
         inkscape:connector-curvature="0"
         id="path4556" />
      <path
         d="m -540.38867,504.76091 -12.96875,-7.1875 q -0.97656,-0.54688 -1.3086,-0.97656 -0.3125,-0.42969 -0.3125,-1.09375 0,-0.83985 0.60547,-1.44532 0.60547,-0.60546 1.42578,-0.60546 0.50782,0 1.5625,0.5664 l 19.31641,10.74219 -19.31641,10.74219 q -1.05468,0.58593 -1.5625,0.58593 -0.82031,0 -1.42578,-0.60546 -0.60547,-0.60547 -0.60547,-1.46485 0,-0.66406 0.3125,-1.09375 0.33204,-0.42969 1.3086,-0.97656 z"
         style="font-style:normal;font-variant:normal;font-weight:bold;font-stretch:normal;font-family:monospace;-inkscape-font-specification:'monospace Bold';fill:#ffffff"
         inkscape:connector-curvature="0"
         id="path4558" />
    </g>
  </g>
</svg>
