<?xml version="1.0" encoding="UTF-8" standalone="no"?>
<svg
   xmlns:dc="http://purl.org/dc/elements/1.1/"
   xmlns:cc="http://creativecommons.org/ns#"
   xmlns:rdf="http://www.w3.org/1999/02/22-rdf-syntax-ns#"
   xmlns:svg="http://www.w3.org/2000/svg"
   xmlns="http://www.w3.org/2000/svg"
   xmlns:sodipodi="http://sodipodi.sourceforge.net/DTD/sodipodi-0.dtd"
   xmlns:inkscape="http://www.inkscape.org/namespaces/inkscape"
   width="581.68909"
   height="581.72876"
   viewBox="18.803 20.515 146.46001 146.40074"
   version="1.1"
   id="svg4495"
   sodipodi:docname="jasmine-1.svg"
   inkscape:version="0.92.1 r15371">
  <metadata
     id="metadata4501">
    <rdf:RDF>
      <cc:Work
         rdf:about="">
        <dc:format>image/svg+xml</dc:format>
        <dc:type
           rdf:resource="http://purl.org/dc/dcmitype/StillImage" />
      </cc:Work>
    </rdf:RDF>
  </metadata>
  <defs
     id="defs4499" />
  <sodipodi:namedview
     pagecolor="#ffffff"
     bordercolor="#666666"
     borderopacity="1"
     objecttolerance="10"
     gridtolerance="10"
     guidetolerance="10"
     inkscape:pageopacity="0"
     inkscape:pageshadow="2"
     inkscape:window-width="1920"
     inkscape:window-height="1013"
     id="namedview4497"
     showgrid="false"
     inkscape:zoom="0.57"
     inkscape:cx="1253.9895"
     inkscape:cy="-117.21943"
     inkscape:window-x="-9"
     inkscape:window-y="-9"
     inkscape:window-maximized="1"
     inkscape:current-layer="svg4495" />
  <path
     d="m 291.31002,81.996372 h 85.246 v 23.438008 h -85.246 z"
     id="path4485"
     inkscape:connector-curvature="0"
     style="fill:none" />
  <g
     id="g4493"
     style="fill:#8a4182"
     transform="translate(-10e-4,-0.03462763)">
    <path
       d="m 86.362,81.162 h 11.344 l 2.817,-3.879 V 46.893 H 83.545 v 30.393 l 2.817,3.876"
       id="path4511"
       inkscape:connector-curvature="0" />
    <path
       d="M 79.05,94.718 82.555,83.93 79.736,80.05 50.834,70.659 45.587,86.807 74.494,96.2 79.05,94.718"
       id="path4509"
       inkscape:connector-curvature="0" />
    <path
       d="m 89.681,105.861 -9.177,-6.67 -4.561,1.484 -17.863,24.587 13.735,9.979 17.865,-24.588 v -4.792"
       id="path4507"
       inkscape:connector-curvature="0" />
    <path
       d="m 103.565,99.191 -9.179,6.668 0.002,4.795 17.862,24.587 13.737,-9.979 -17.866,-24.589 -4.556,-1.482"
       id="path4505"
       inkscape:connector-curvature="0" />
    <path
       d="m 101.51,83.927 3.507,10.79 4.561,1.479 28.903,-9.39 -5.246,-16.148 -28.905,9.393 -2.82,3.876"
       id="path4487"
       inkscape:connector-curvature="0" />
    <path
       d="m 92.038,20.515 c -40.381,0 -73.234,32.847 -73.234,73.223 0,40.389 32.854,73.247 73.234,73.247 40.377,0 73.226,-32.857 73.226,-73.247 C 165.263,53.362 132.415,20.515 92.038,20.515 Z m 0,14.826 c 32.246,0 58.398,26.141 58.398,58.396 0,32.266 -26.152,58.418 -58.398,58.418 -32.26,0 -58.407,-26.152 -58.407,-58.418 0,-32.255 26.147,-58.396 58.407,-58.396"
       id="path4489"
       inkscape:connector-curvature="0" />
    <path
       d="m 136.391,110.015 -21.972,-7.14 1.454,-4.477 21.97,7.141 -1.452,4.476 m -28.021,-35.274 -3.808,-2.766 13.578,-18.691 3.808,2.765 -13.578,18.692 m -32.437,-0.172 -13.576,-18.69 3.808,-2.767 13.576,18.692 -3.808,2.765 m -28.347,35.165 -1.453,-4.476 21.97,-7.136 1.453,4.475 -21.97,7.137 m 41.95,30.692 h 4.705 v -23.102 h -4.705 z"
       id="path4491"
       inkscape:connector-curvature="0" />
  </g>
</svg>
