<?xml version="1.0" encoding="UTF-8" standalone="no"?>
<svg
   xmlns:dc="http://purl.org/dc/elements/1.1/"
   xmlns:cc="http://creativecommons.org/ns#"
   xmlns:rdf="http://www.w3.org/1999/02/22-rdf-syntax-ns#"
   xmlns:svg="http://www.w3.org/2000/svg"
   xmlns="http://www.w3.org/2000/svg"
   xmlns:sodipodi="http://sodipodi.sourceforge.net/DTD/sodipodi-0.dtd"
   xmlns:inkscape="http://www.inkscape.org/namespaces/inkscape"
   width="582.30792"
   height="556.79724"
   viewBox="0 0 119.25666 114.12043"
   preserveAspectRatio="xMidYMid"
   version="1.1"
   id="svg4487"
   sodipodi:docname="knockout.svg"
   inkscape:version="0.92.1 r15371">
  <metadata
     id="metadata4493">
    <rdf:RDF>
      <cc:Work
         rdf:about="">
        <dc:format>image/svg+xml</dc:format>
        <dc:type
           rdf:resource="http://purl.org/dc/dcmitype/StillImage" />
      </cc:Work>
    </rdf:RDF>
  </metadata>
  <defs
     id="defs4491" />
  <sodipodi:namedview
     pagecolor="#ffffff"
     bordercolor="#666666"
     borderopacity="1"
     objecttolerance="10"
     gridtolerance="10"
     guidetolerance="10"
     inkscape:pageopacity="0"
     inkscape:pageshadow="2"
     inkscape:window-width="1920"
     inkscape:window-height="1013"
     id="namedview4489"
     showgrid="false"
     inkscape:zoom="0.57"
     inkscape:cx="1248.0591"
     inkscape:cy="299.66694"
     inkscape:window-x="-9"
     inkscape:window-y="-9"
     inkscape:window-maximized="1"
     inkscape:current-layer="svg4487" />
  <path
     d="m 26.509098,1.5147554 c 5.075,-1.74700001 10.502,-1.62400001 15.79,-1.36400001 0.862,0.171 1.716,0.396 2.597,0.48 2.918,0.88000001 5.753,2.01600001 8.39,3.56000001 3.314,2.422 6.299,5.367 8.328,8.9669996 0.493,1.317 1.026,2.62 1.528,3.931 0.717,3.025 0.62,6.137 0.532,9.223 -0.29,3.437 -1.329,6.748 -2.32,10.036 -0.520484,1.148779 -0.967385,2.329495 -1.338,3.535 -0.695,1.378 -1.175,2.857 -1.94,4.2 1.36,-1.788 3.08,-3.254 4.582,-4.918 2.451,-2.953 5.313,-5.529 7.914,-8.35 3.06,-3.68 6.749,-6.788 9.782,-10.495 5.502,-5.383 10.437,-11.3079996 16.098,-16.5379996 0.91,-0.58 1.813,-1.18 2.711,-1.787 2.258002,-1.27200001 4.856002,-1.22400001 7.370002,-1.00400001 1.967,0.97300001 3.908,2.40400001 4.696,4.53400001 0.73,1.66 0.405,3.509 0.405,5.2599996 -0.651,1.185 -1.233,2.409 -1.884,3.593 -0.313,0.444 -0.616,0.898 -0.911,1.356 -1.831,1.848 -3.368,3.966 -5.27,5.749 -2.16,2.249 -4.450002,4.393 -6.430002,6.81 -2.98,3.173 -6.212,6.123 -9.007,9.464 -2.236,2.315 -4.525,4.573 -6.735,6.915 -2.364,2.857 -5.12,5.357 -7.664,8.051 0.273,0.595 0.546,1.189 0.823,1.783 0.52,1.642 1.043,3.284 1.748,4.86 0.55,1.624 1.052,3.27 1.76,4.842 0.55,1.625 1.053,3.27 1.761,4.842 0.55,1.625 1.052,3.271 1.761,4.838 0.55,1.629 1.052,3.275 1.76,4.842 0.547,1.625 1.062,3.267 1.757,4.838 0.392,1.206 0.797,2.417 1.365,3.561 0.048,0.203 0.14,0.603 0.19,0.801 0.519,1.325 0.937,2.69 1.491,4.006 0.243,0.595 0.52,1.176 0.81,1.752 1.418,2.18 4.107,3.214 6.625,3.253 l 15.403622,-0.004 c 1.175,-0.013 2.293,0.431 3.464,0.528 0.92,0.467 1.845,0.929 2.778,1.374 0.748,0.836 1.32,1.796005 1.87,2.773005 0.0744,1.70603 0.0674,3.41464 -0.021,5.12 -0.198,0.462 -0.383,0.924 -0.546,1.4 -1.074,1.892 -2.672,3.415 -4.52,4.546 -1.863,0.564 -3.707,1.378 -5.67,1.435 l -19.387622,0.005 c -1.593,0.048 -3.108,-0.568 -4.706,-0.506 -1.628,-0.617 -3.372,-1.022 -4.82,-2.034 -1.875,-1.105 -2.94,-3.064 -4.186,-4.767 -0.528,-1.053 -1.061,-2.096 -1.572,-3.152 -0.343,-0.885 -0.69,-1.77 -1.109,-2.624 -0.05958,-0.26448 -0.121249,-0.52849 -0.185,-0.792 -0.95,-2.514005 -1.827,-5.062005 -2.848,-7.554005 -0.559,-1.633 -1.048,-3.297 -1.805,-4.855 l -0.193,-0.793 c -0.52,-1.338 -0.93,-2.716 -1.523,-4.019 -0.392,-1.197 -0.802,-2.39 -1.321,-3.535 -0.55,-1.624 -1.057,-3.27 -1.765,-4.837 -0.55,-1.625 -1.061,-3.267 -1.757,-4.834 -0.396,-1.206 -0.8,-2.412 -1.364,-3.552 l -0.194,-0.797 c -0.52,-1.338 -0.929,-2.716 -1.523,-4.019 -0.392,-1.197 -0.801,-2.39 -1.325,-3.535 -0.62,-1.915 -1.294,-3.812 -2.087,-5.66 -0.09929,0.568836 -0.204959,1.136538 -0.317,1.703 -0.37,0.717 -0.69,1.457 -0.968,2.214 -0.310751,0.72555 -0.601527,1.459493 -0.872,2.201 -0.314711,0.724108 -0.609488,1.456717 -0.884,2.197 -0.312618,0.725471 -0.606054,1.45906 -0.88,2.2 -0.313512,0.726554 -0.608936,1.460781 -0.886,2.202 -0.314961,0.726721 -0.605458,1.463802 -0.871,2.21 -0.815,1.725 -1.514,3.5 -2.188,5.282 -0.320672,0.722743 -0.615854,1.456529 -0.885,2.2 -0.31959,0.723876 -0.614756,1.458291 -0.885,2.202 -0.317895,0.723269 -0.611394,1.457016 -0.88,2.2 -0.319571,0.722195 -0.614738,1.454943 -0.885,2.197 -0.316407,0.722879 -0.609887,1.455578 -0.88,2.197 -0.317,0.73 -0.612,1.461 -0.88,2.21 -0.375,0.854 -0.71,1.721 -1.053,2.588 -0.286,0.594 -0.572,1.189 -0.854,1.783 -1.39,2.254 -2.962,4.455 -5.242,5.885 -0.22,0.12 -0.652,0.361 -0.868,0.485 -1.712,0.457 -3.433,1.223 -5.242,0.937 -0.749,-0.158 -1.48,-0.365 -2.232,-0.488 -1.316,-0.744 -2.553,-1.63 -3.588,-2.738 -0.321273,-0.63487 -0.655678,-1.263 -1.003,-1.884 -0.414,-2.985 0.18,-5.96 1.44,-8.677 0.316,-0.722 0.615,-1.452 0.888,-2.196 0.317,-0.727 0.612,-1.457 0.88,-2.201 0.318,-0.727 0.613,-1.457 0.881,-2.201 0.317,-0.722 0.616,-1.453 0.885,-2.197 0.314504,-0.723338 0.60796,-1.455646 0.88,-2.196 0.313,-0.731 0.612,-1.462 0.885,-2.201 0.308,-0.731 0.608,-1.462 0.88,-2.201 0.313,-0.727 0.608,-1.462 0.885,-2.201 0.308,-0.727 0.608,-1.462 0.872,-2.21 1.131,-2.448 2.082,-4.974 3.068,-7.484 0.317,-0.726 0.62,-1.457 0.89,-2.2 0.312,-0.727 0.611,-1.458 0.88,-2.202 0.317,-0.721 0.612,-1.457 0.88,-2.196 0.317,-0.726 0.616,-1.457 0.885,-2.201 0.312,-0.726 0.612,-1.457 0.88,-2.201 0.313,-0.726 0.612,-1.457 0.885,-2.201 0.308,-0.726 0.608,-1.457 0.88,-2.197 0.313,-0.726 0.608,-1.461 0.88,-2.205 1.29,-3.029 2.404,-6.128 3.245,-9.315 0.625,-2.31 0.973,-4.877 0.088,-7.162 -1.378,-2.386 -3.689,-4.168 -6.383,-4.793 -2.817,-0.397 -5.762,-0.18 -8.39,0.99 -0.594,0.273 -1.184,0.559 -1.752,0.88 -4.543,2.857 -8.438,7.299 -9.574,12.665 -0.4,1.263 -0.238,2.615 -0.45,3.913 0.12,1.765 0.225,3.548 1.123,5.129 1.248377,2.097694 3.093566,3.775772 5.3,4.82 0.911,0.396 1.823,0.805 2.782,1.083 1.349854,0.696172 2.574285,1.612383 3.623,2.711 0.101,0.238 0.3,0.718 0.396,0.955 0.185,0.467 0.375,0.93 0.577,1.391 0.638,4.178 -2.219,8.087 -5.93,9.72 -3.385,0.982 -7.091,0.806 -10.49,-0.035 -0.719196,-0.340934 -1.45326,-0.649575 -2.2,-0.925 -0.73623,-0.465296 -1.487994,-0.905548 -2.254,-1.32 -3.465,-2.346 -5.97,-5.758 -8.065,-9.315 -0.422,-1.056 -0.818,-2.122 -1.303,-3.147 -1.16500001,-4.072 -1.69400001,-8.298 -1.39000001,-12.533 0.585,-3.292 1.038,-6.655 2.27500001,-9.807 0.476,-1.021 0.88,-2.074 1.303,-3.117 0.62,-1.017 1.246,-2.034 1.818,-3.077 0.599,-0.876 1.189,-1.752 1.77,-2.641 2.905,-3.72 6.299,-7.0599996 10.195,-9.7459996 0.449,-0.3 0.902,-0.603 1.347,-0.916 1.73,-0.942 3.495,-1.813 5.269,-2.667 0.89,-0.273 1.77,-0.577 2.646,-0.894 z"
     id="path4513"
     inkscape:connector-curvature="0"
     sodipodi:nodetypes="ccccccccccccccccccccccccccccccccccccccccccccccccccccccccccccccccccccccccccccccccccccccccccccccccccccccccccccccccccccccccccccccccccccc"
     style="fill:#2d3c49;fill-opacity:1" />
</svg>
